<!DOCTYPE svg PUBLIC "-//W3C//DTD SVG 1.1//EN" "http://www.w3.org/Graphics/SVG/1.1/DTD/svg11.dtd">
<!-- Uploaded to: SVG Repo, www.svgrepo.com, Transformed by: SVG Repo Mixer Tools -->
<svg width="256px" height="256px" viewBox="-12 -12 48.00 48.00" fill="none" xmlns="http://www.w3.org/2000/svg" stroke="#8fbfff">
<g id="SVGRepo_bgCarrier" stroke-width="0">
<path transform="translate(-12, -12), scale(1.5)" d="M16,27.54867696110159C18.343135105400442,27.548023951650656,20.62594051410466,29.83685110466435,22.78760665988889,28.93270398015882C24.90741042322446,28.046066383102627,24.998339965199893,24.997737186247484,26.418159170185547,23.19113605464175C27.95104095484335,21.24067225118264,31.543833597682656,20.358752690257866,31.474797467712403,17.878980598492458C31.4010299779589,15.229258453738042,27.443661848347464,14.456837647660642,26.111203847395473,12.165326189551497C25.068078308409124,10.371397883274158,25.772787747931318,7.964850598585782,24.683076487138948,6.198832754324025C23.45457238745777,4.207883188281993,21.810347547578363,2.1952680551386115,19.56145444371446,1.550611321015877C17.30811113038399,0.9046789115415866,14.870138663503573,1.7960586191071206,12.740431929611514,2.7754124841401993C10.794989736392182,3.6700315886428503,9.520214590386981,5.456999092895263,7.935367868774424,6.89691212439859C6.370097357956199,8.319039182882689,4.1728227777543845,9.252749578242478,3.4312275133836128,11.233293343568715C2.6898686079810084,13.21320587606045,3.508468791794544,15.398623544288535,3.980327839600834,17.45945243139705C4.416679531860072,19.365204109842523,5.278294045784863,21.06200919716721,6.08900830505161,22.841063622713772C7.049546979214904,24.948897005001154,7.11806860804843,27.942649616470202,9.210407429679975,28.936487816350827C11.327743405185114,29.94219939264211,13.655950729805268,27.549330225321555,16,27.54867696110159" fill="#8fbfff" strokewidth="0"/>
</g>
<g id="SVGRepo_tracerCarrier" stroke-linecap="round" stroke-linejoin="round"/>
<g id="SVGRepo_iconCarrier"> <path d="M10.58 21H6C4.93913 21 3.92172 20.5785 3.17157 19.8284C2.42142 19.0782 2 18.0609 2 17V7C2 5.93913 2.42142 4.92165 3.17157 4.17151C3.92172 3.42136 4.93913 3 6 3" stroke="#026ffa" stroke-width="1.5" stroke-linecap="round" stroke-linejoin="round"/> <path d="M6 3H8C8.69805 3.00421 9.38284 3.19101 9.98633 3.54187C10.5898 3.89273 11.091 4.39545 11.44 5C11.797 5.60635 12.3055 6.10947 12.9156 6.46008C13.5256 6.8107 14.2164 6.99678 14.92 7H18C19.0609 7 20.0783 7.42136 20.8284 8.17151C21.5786 8.92165 22 9.93913 22 11" stroke="#026ffa" stroke-width="1.5" stroke-linecap="round" stroke-linejoin="round"/> <path d="M14 18H22" stroke="#026ffa" stroke-width="1.5" stroke-linecap="round" stroke-linejoin="round"/> </g>
</svg>