<!DOCTYPE svg PUBLIC "-//W3C//DTD SVG 1.1//EN" "http://www.w3.org/Graphics/SVG/1.1/DTD/svg11.dtd">
<!-- Uploaded to: SVG Repo, www.svgrepo.com, Transformed by: SVG Repo Mixer Tools -->
<svg width="256px" height="256px" viewBox="-5.52 -5.52 35.04 35.04" fill="none" xmlns="http://www.w3.org/2000/svg">
<g id="SVGRepo_bgCarrier" stroke-width="0">
<path transform="translate(-5.52, -5.52), scale(1.095)" d="M16,29.766576869147165C17.8644521920567,29.468988745619235,19.543223972890775,28.57976617945839,21.188554142397333,27.653683407217464C22.740772275542447,26.780009236217023,24.019419742657057,25.586532554246297,25.408159337391236,24.471144716785552C26.998514642630568,23.193826080929522,29.294366028576103,22.46147631788392,30.02460600012407,20.55687072134651C30.748701242725357,18.668291753858508,29.584002343750257,16.59732509691035,29.187485255979908,14.61393944709285C28.818298998718582,12.767263106157852,28.689625680969638,10.848164536548058,27.75661078374055,9.21231759924974C26.821942092448168,7.573571079145841,25.27155255247324,6.439765280056379,23.83071017222496,5.221952094499857C22.313154803166736,3.9393003877026516,20.975864528630694,2.13452943506239,19.01350665489489,1.8225658562678255C17.043726301044774,1.5094222972611995,15.245487661845775,2.9206530107726962,13.355073651937374,3.5565998655516644C11.638283656618412,4.134138538094614,9.933055493863758,4.608690756983768,8.314476934384624,5.421785003122803C6.5067341916677055,6.329906029435997,4.329369985085509,6.928071472164245,3.244542661048788,8.635633271719723C2.1616618561029872,10.340131172009283,2.6441332575372547,12.566713993752995,2.4957791102580202,14.580649190524886C2.351007255421355,16.545954099788602,1.9298398601936706,18.50724989779886,2.37596647740137,20.426716833629676C2.8364307525163905,22.407871772885635,3.7899767382470397,24.258189660908464,5.105583919588371,25.80937629906604C6.436658522831018,27.378800036047906,8.083368238318249,28.734123563742163,10.017596917208307,29.436697320268063C11.915498787124479,30.126076017222196,14.006013302536171,30.084840197199224,16,29.766576869147165" fill="#a8ceff" strokewidth="0"/>
</g>
<g id="SVGRepo_tracerCarrier" stroke-linecap="round" stroke-linejoin="round"/>
<g id="SVGRepo_iconCarrier"> <path d="M3 7.2C3 6.07989 3 5.51984 3.21799 5.09202C3.40973 4.71569 3.71569 4.40973 4.09202 4.21799C4.51984 4 5.0799 4 6.2 4H17.8C18.9201 4 19.4802 4 19.908 4.21799C20.2843 4.40973 20.5903 4.71569 20.782 5.09202C21 5.51984 21 6.0799 21 7.2V20L17.6757 18.3378C17.4237 18.2118 17.2977 18.1488 17.1656 18.1044C17.0484 18.065 16.9277 18.0365 16.8052 18.0193C16.6672 18 16.5263 18 16.2446 18H6.2C5.07989 18 4.51984 18 4.09202 17.782C3.71569 17.5903 3.40973 17.2843 3.21799 16.908C3 16.4802 3 15.9201 3 14.8V7.2Z" stroke="#026ffa" stroke-width="2" stroke-linecap="round" stroke-linejoin="round"/> </g>
</svg>