<!DOCTYPE svg PUBLIC "-//W3C//DTD SVG 1.1//EN" "http://www.w3.org/Graphics/SVG/1.1/DTD/svg11.dtd">
<!-- Uploaded to: SVG Repo, www.svgrepo.com, Transformed by: SVG Repo Mixer Tools -->
<svg fill="#026ffa" width="256px" height="256px" viewBox="-11.52 -11.52 55.04 55.04" version="1.1" xmlns="http://www.w3.org/2000/svg">
<g id="SVGRepo_bgCarrier" stroke-width="0">
<path transform="translate(-11.52, -11.52), scale(1.72)" d="M16,26.675299680481352C18.798873703096397,26.607535787287613,21.25141420411363,30.68015173463835,23.77177820727229,29.461114720152175C26.210145341025775,28.281737540019936,25.464798462323557,24.45100739318411,26.061305954799202,21.808897701402508C26.49871814018589,19.871468601363624,26.48494538962909,17.959266124442614,26.810885861516,16C27.210384020981216,13.598570051500232,29.10087283942853,11.218050429937188,28.19938018685687,8.956684565171603C27.311802786323675,6.730224670931264,24.50102956242486,6.067910203466001,22.39515219566723,4.923271474968702C20.338592654060328,3.8054391947308766,18.33391171599251,2.5042186788009957,16,2.3257746907571963C13.578680093231892,2.140647730927098,11.197787732012305,2.837699229737048,9.014178238188231,3.90020177592168C6.725888991324203,5.013639484484704,4.41304815708744,6.371801340293766,3.147452344466984,8.579578151305512C1.8830788293707603,10.785222717485814,1.842966169284628,13.46854774738393,2.0780360115071144,15.999999999999998C2.299920217916951,18.389456975108217,3.5105158920933768,20.45938583225346,4.455443560319878,22.665252768124134C5.524817113612746,25.161629837631043,5.442448449551902,28.95166784389593,8.00786911013225,29.84277676199159C10.76177237137328,30.79935584992544,13.085545043545087,26.745861926347857,16,26.675299680481352" fill="#8fbfff" strokewidth="0"/>
</g>
<g id="SVGRepo_tracerCarrier" stroke-linecap="round" stroke-linejoin="round"/>
<g id="SVGRepo_iconCarrier"> <path d="M23.313 26.102l-6.296-3.488c2.34-1.841 2.976-5.459 2.976-7.488v-4.223c0-2.796-3.715-5.91-7.447-5.91-3.73 0-7.544 3.114-7.544 5.91v4.223c0 1.845 0.78 5.576 3.144 7.472l-6.458 3.503s-1.688 0.752-1.688 1.689v2.534c0 0.933 0.757 1.689 1.688 1.689h21.625c0.931 0 1.688-0.757 1.688-1.689v-2.534c0-0.994-1.689-1.689-1.689-1.689zM23.001 30.015h-21.001v-1.788c0.143-0.105 0.344-0.226 0.502-0.298 0.047-0.021 0.094-0.044 0.139-0.070l6.459-3.503c0.589-0.32 0.979-0.912 1.039-1.579s-0.219-1.32-0.741-1.739c-1.677-1.345-2.396-4.322-2.396-5.911v-4.223c0-1.437 2.708-3.91 5.544-3.91 2.889 0 5.447 2.44 5.447 3.91v4.223c0 1.566-0.486 4.557-2.212 5.915-0.528 0.416-0.813 1.070-0.757 1.739s0.446 1.267 1.035 1.589l6.296 3.488c0.055 0.030 0.126 0.063 0.184 0.089 0.148 0.063 0.329 0.167 0.462 0.259v1.809zM30.312 21.123l-6.39-3.488c2.34-1.841 3.070-5.459 3.070-7.488v-4.223c0-2.796-3.808-5.941-7.54-5.941-2.425 0-4.904 1.319-6.347 3.007 0.823 0.051 1.73 0.052 2.514 0.302 1.054-0.821 2.386-1.308 3.833-1.308 2.889 0 5.54 2.47 5.54 3.941v4.223c0 1.566-0.58 4.557-2.305 5.915-0.529 0.416-0.813 1.070-0.757 1.739 0.056 0.67 0.445 1.267 1.035 1.589l6.39 3.488c0.055 0.030 0.126 0.063 0.184 0.089 0.148 0.063 0.329 0.167 0.462 0.259v1.779h-4.037c0.61 0.46 0.794 1.118 1.031 2h3.319c0.931 0 1.688-0.757 1.688-1.689v-2.503c-0.001-0.995-1.689-1.691-1.689-1.691z"/> </g>
</svg>